<mxfile host="app.diagrams.net" agent="Mozilla/5.0 (Windows NT 10.0; Win64; x64) AppleWebKit/537.36 (KHTML, like Gecko) Chrome/131.0.0.0 Safari/537.36" version="25.0.1">
  <diagram name="หน้า-1" id="TLqMQvhZ-vBCqLT2y8bN">
    <mxGraphModel dx="1050" dy="530" grid="1" gridSize="10" guides="1" tooltips="1" connect="1" arrows="1" fold="1" page="1" pageScale="1" pageWidth="827" pageHeight="1169" math="0" shadow="0">
      <root>
        <mxCell id="0" />
        <mxCell id="1" parent="0" />
        <mxCell id="z4WzdDgRF9bNMohmbe45-3" value="" style="edgeStyle=orthogonalEdgeStyle;rounded=0;orthogonalLoop=1;jettySize=auto;html=1;" edge="1" parent="1" source="z4WzdDgRF9bNMohmbe45-1" target="z4WzdDgRF9bNMohmbe45-2">
          <mxGeometry relative="1" as="geometry" />
        </mxCell>
        <mxCell id="z4WzdDgRF9bNMohmbe45-1" value="Start" style="ellipse;whiteSpace=wrap;html=1;" vertex="1" parent="1">
          <mxGeometry x="354" y="10" width="120" height="80" as="geometry" />
        </mxCell>
        <mxCell id="z4WzdDgRF9bNMohmbe45-5" value="" style="edgeStyle=orthogonalEdgeStyle;rounded=0;orthogonalLoop=1;jettySize=auto;html=1;" edge="1" parent="1" source="z4WzdDgRF9bNMohmbe45-2" target="z4WzdDgRF9bNMohmbe45-4">
          <mxGeometry relative="1" as="geometry" />
        </mxCell>
        <mxCell id="z4WzdDgRF9bNMohmbe45-2" value="Input size" style="shape=parallelogram;perimeter=parallelogramPerimeter;whiteSpace=wrap;html=1;fixedSize=1;" vertex="1" parent="1">
          <mxGeometry x="354" y="180" width="120" height="60" as="geometry" />
        </mxCell>
        <mxCell id="z4WzdDgRF9bNMohmbe45-7" value="" style="edgeStyle=orthogonalEdgeStyle;rounded=0;orthogonalLoop=1;jettySize=auto;html=1;" edge="1" parent="1" source="z4WzdDgRF9bNMohmbe45-4" target="z4WzdDgRF9bNMohmbe45-6">
          <mxGeometry relative="1" as="geometry" />
        </mxCell>
        <mxCell id="z4WzdDgRF9bNMohmbe45-4" value="Input num" style="shape=parallelogram;perimeter=parallelogramPerimeter;whiteSpace=wrap;html=1;fixedSize=1;" vertex="1" parent="1">
          <mxGeometry x="354" y="320" width="120" height="60" as="geometry" />
        </mxCell>
        <mxCell id="z4WzdDgRF9bNMohmbe45-11" value="" style="edgeStyle=orthogonalEdgeStyle;rounded=0;orthogonalLoop=1;jettySize=auto;html=1;" edge="1" parent="1" source="z4WzdDgRF9bNMohmbe45-6" target="z4WzdDgRF9bNMohmbe45-10">
          <mxGeometry relative="1" as="geometry" />
        </mxCell>
        <mxCell id="z4WzdDgRF9bNMohmbe45-6" value="Output Matrix" style="shape=parallelogram;perimeter=parallelogramPerimeter;whiteSpace=wrap;html=1;fixedSize=1;" vertex="1" parent="1">
          <mxGeometry x="354" y="460" width="120" height="60" as="geometry" />
        </mxCell>
        <mxCell id="z4WzdDgRF9bNMohmbe45-13" value="" style="edgeStyle=orthogonalEdgeStyle;rounded=0;orthogonalLoop=1;jettySize=auto;html=1;" edge="1" parent="1" source="z4WzdDgRF9bNMohmbe45-10" target="z4WzdDgRF9bNMohmbe45-12">
          <mxGeometry relative="1" as="geometry" />
        </mxCell>
        <mxCell id="z4WzdDgRF9bNMohmbe45-10" value="Input 1 or -1" style="shape=parallelogram;perimeter=parallelogramPerimeter;whiteSpace=wrap;html=1;fixedSize=1;" vertex="1" parent="1">
          <mxGeometry x="354" y="600" width="120" height="60" as="geometry" />
        </mxCell>
        <mxCell id="z4WzdDgRF9bNMohmbe45-15" value="T" style="edgeStyle=orthogonalEdgeStyle;rounded=0;orthogonalLoop=1;jettySize=auto;html=1;" edge="1" parent="1" source="z4WzdDgRF9bNMohmbe45-12" target="z4WzdDgRF9bNMohmbe45-14">
          <mxGeometry relative="1" as="geometry" />
        </mxCell>
        <mxCell id="z4WzdDgRF9bNMohmbe45-17" value="F" style="edgeStyle=orthogonalEdgeStyle;rounded=0;orthogonalLoop=1;jettySize=auto;html=1;" edge="1" parent="1" source="z4WzdDgRF9bNMohmbe45-12" target="z4WzdDgRF9bNMohmbe45-16">
          <mxGeometry relative="1" as="geometry" />
        </mxCell>
        <mxCell id="z4WzdDgRF9bNMohmbe45-12" value="Input = 1" style="rhombus;whiteSpace=wrap;html=1;" vertex="1" parent="1">
          <mxGeometry x="374" y="730" width="80" height="80" as="geometry" />
        </mxCell>
        <mxCell id="z4WzdDgRF9bNMohmbe45-20" value="" style="edgeStyle=orthogonalEdgeStyle;rounded=0;orthogonalLoop=1;jettySize=auto;html=1;" edge="1" parent="1" source="z4WzdDgRF9bNMohmbe45-14" target="z4WzdDgRF9bNMohmbe45-18">
          <mxGeometry relative="1" as="geometry" />
        </mxCell>
        <mxCell id="z4WzdDgRF9bNMohmbe45-14" value="Output Matrix zero left" style="shape=parallelogram;perimeter=parallelogramPerimeter;whiteSpace=wrap;html=1;fixedSize=1;" vertex="1" parent="1">
          <mxGeometry x="341" y="880" width="146" height="60" as="geometry" />
        </mxCell>
        <mxCell id="z4WzdDgRF9bNMohmbe45-19" value="" style="edgeStyle=orthogonalEdgeStyle;rounded=0;orthogonalLoop=1;jettySize=auto;html=1;" edge="1" parent="1" source="z4WzdDgRF9bNMohmbe45-16" target="z4WzdDgRF9bNMohmbe45-18">
          <mxGeometry relative="1" as="geometry" />
        </mxCell>
        <mxCell id="z4WzdDgRF9bNMohmbe45-16" value="Output Matrix zero right" style="shape=parallelogram;perimeter=parallelogramPerimeter;whiteSpace=wrap;html=1;fixedSize=1;" vertex="1" parent="1">
          <mxGeometry x="514" y="740" width="126" height="60" as="geometry" />
        </mxCell>
        <mxCell id="z4WzdDgRF9bNMohmbe45-22" value="" style="edgeStyle=orthogonalEdgeStyle;rounded=0;orthogonalLoop=1;jettySize=auto;html=1;" edge="1" parent="1" source="z4WzdDgRF9bNMohmbe45-18" target="z4WzdDgRF9bNMohmbe45-21">
          <mxGeometry relative="1" as="geometry" />
        </mxCell>
        <mxCell id="z4WzdDgRF9bNMohmbe45-18" value="" style="shape=waypoint;sketch=0;size=6;pointerEvents=1;points=[];fillColor=default;resizable=0;rotatable=0;perimeter=centerPerimeter;snapToPoint=1;" vertex="1" parent="1">
          <mxGeometry x="567" y="900" width="20" height="20" as="geometry" />
        </mxCell>
        <mxCell id="z4WzdDgRF9bNMohmbe45-21" value="End" style="ellipse;whiteSpace=wrap;html=1;" vertex="1" parent="1">
          <mxGeometry x="517" y="1020" width="120" height="80" as="geometry" />
        </mxCell>
      </root>
    </mxGraphModel>
  </diagram>
</mxfile>
